<svg width="13" height="13" viewBox="0 0 13 13" fill="none" xmlns="http://www.w3.org/2000/svg">
<g id="Iconsax/Bold/addsquare">
<path id="Vector" d="M8.7695 1.08337H4.23033C2.25867 1.08337 1.08325 2.25879 1.08325 4.23046V8.76421C1.08325 10.7413 2.25867 11.9167 4.23033 11.9167H8.76408C10.7358 11.9167 11.9112 10.7413 11.9112 8.76962V4.23046C11.9166 2.25879 10.7412 1.08337 8.7695 1.08337ZM8.66658 6.90629H6.90617V8.66671C6.90617 8.88879 6.722 9.07296 6.49992 9.07296C6.27783 9.07296 6.09367 8.88879 6.09367 8.66671V6.90629H4.33325C4.11117 6.90629 3.927 6.72212 3.927 6.50004C3.927 6.27796 4.11117 6.09379 4.33325 6.09379H6.09367V4.33337C6.09367 4.11129 6.27783 3.92712 6.49992 3.92712C6.722 3.92712 6.90617 4.11129 6.90617 4.33337V6.09379H8.66658C8.88867 6.09379 9.07283 6.27796 9.07283 6.50004C9.07283 6.72212 8.88867 6.90629 8.66658 6.90629Z" fill="#229ED9"/>
</g>
</svg>
