<svg width="14" height="14" viewBox="0 0 14 14" fill="none" xmlns="http://www.w3.org/2000/svg">
<g id="Iconsax/Outline/arrowright">
<path id="Vector" d="M8.4176 10.9783C8.30677 10.9783 8.19594 10.9374 8.10844 10.8499C8.02707 10.7676 7.98145 10.6565 7.98145 10.5408C7.98145 10.425 8.02707 10.3139 8.10844 10.2316L11.3401 6.99995L8.10844 3.76828C8.02707 3.68595 7.98145 3.57486 7.98145 3.45911C7.98145 3.34336 8.02707 3.23228 8.10844 3.14995C8.2776 2.98078 8.5576 2.98078 8.72677 3.14995L12.2676 6.69078C12.4368 6.85995 12.4368 7.13995 12.2676 7.30911L8.72677 10.8499C8.63927 10.9374 8.52844 10.9783 8.4176 10.9783Z" fill="#003577"/>
<path id="Vector_2" d="M11.8592 7.4375H2.04175C1.80258 7.4375 1.60425 7.23917 1.60425 7C1.60425 6.76083 1.80258 6.5625 2.04175 6.5625H11.8592C12.0984 6.5625 12.2967 6.76083 12.2967 7C12.2967 7.23917 12.0984 7.4375 11.8592 7.4375Z" fill="#003577"/>
</g>
</svg>
