<svg width="10" height="10" viewBox="0 0 10 10" fill="none" xmlns="http://www.w3.org/2000/svg">
<g id="Iconsax/Outline/copy" clip-path="url(#clip0_4_1003)">
<path id="Vector" d="M4.62492 9.47921H2.87492C1.24575 9.47921 0.520752 8.75421 0.520752 7.12504V5.37504C0.520752 3.74587 1.24575 3.02087 2.87492 3.02087H4.62492C6.25409 3.02087 6.97909 3.74587 6.97909 5.37504V7.12504C6.97909 8.75421 6.25409 9.47921 4.62492 9.47921ZM2.87492 3.64587C1.58325 3.64587 1.14575 4.08337 1.14575 5.37504V7.12504C1.14575 8.41671 1.58325 8.85421 2.87492 8.85421H4.62492C5.91659 8.85421 6.35409 8.41671 6.35409 7.12504V5.37504C6.35409 4.08337 5.91659 3.64587 4.62492 3.64587H2.87492Z" fill="#003577"/>
<path id="Vector_2" d="M7.12492 6.97921H6.66659C6.49575 6.97921 6.35409 6.83754 6.35409 6.66671V5.37504C6.35409 4.08337 5.91659 3.64587 4.62492 3.64587H3.33325C3.16242 3.64587 3.02075 3.50421 3.02075 3.33337V2.87504C3.02075 1.24587 3.74575 0.520874 5.37492 0.520874H7.12492C8.75409 0.520874 9.47909 1.24587 9.47909 2.87504V4.62504C9.47909 6.25421 8.75409 6.97921 7.12492 6.97921ZM6.97909 6.35421H7.12492C8.41659 6.35421 8.85409 5.91671 8.85409 4.62504V2.87504C8.85409 1.58337 8.41659 1.14587 7.12492 1.14587H5.37492C4.08325 1.14587 3.64575 1.58337 3.64575 2.87504V3.02087H4.62492C6.25409 3.02087 6.97909 3.74587 6.97909 5.37504V6.35421Z" fill="#003577"/>
</g>
<defs>
<clipPath id="clip0_4_1003">
<rect width="10" height="10" fill="white"/>
</clipPath>
</defs>
</svg>
