<svg width="12" height="12" viewBox="0 0 12 12" fill="none" xmlns="http://www.w3.org/2000/svg">
<g id="Iconsax/Bold/warning2">
<path id="Vector" d="M9.75496 2.925L6.78496 1.21C6.29996 0.93 5.69996 0.93 5.20996 1.21L2.24496 2.925C2.00585 3.06364 1.80743 3.26276 1.66964 3.50236C1.53184 3.74196 1.45953 4.0136 1.45996 4.29V7.71C1.45996 8.27 1.75996 8.79 2.24496 9.075L5.21496 10.79C5.69996 11.07 6.29996 11.07 6.78996 10.79L9.75996 9.075C9.99908 8.93636 10.1975 8.73724 10.3353 8.49764C10.4731 8.25804 10.5454 7.9864 10.545 7.71V4.29C10.5428 4.01354 10.4688 3.74239 10.3303 3.5031C10.1919 3.26382 9.99359 3.06461 9.75496 2.925ZM5.62496 3.875C5.62496 3.67 5.79496 3.5 5.99996 3.5C6.20496 3.5 6.37496 3.67 6.37496 3.875V6.5C6.37496 6.705 6.20496 6.875 5.99996 6.875C5.79496 6.875 5.62496 6.705 5.62496 6.5V3.875ZM6.45996 8.315C6.43496 8.375 6.39996 8.43 6.35496 8.48C6.28501 8.54996 6.19571 8.59735 6.09856 8.61607C6.00142 8.63479 5.9009 8.62396 5.80996 8.585C5.74496 8.56 5.69496 8.525 5.64496 8.48C5.59996 8.43 5.56496 8.375 5.53496 8.315C5.51088 8.25459 5.49898 8.19002 5.49996 8.125C5.49996 7.995 5.54996 7.865 5.64496 7.77C5.69496 7.725 5.74496 7.69 5.80996 7.665C5.99496 7.585 6.21496 7.63 6.35496 7.77C6.39996 7.82 6.43496 7.87 6.45996 7.935C6.48496 7.995 6.49996 8.06 6.49996 8.125C6.49996 8.19 6.48496 8.255 6.45996 8.315Z" fill="#E14942"/>
</g>
</svg>
