<svg width="11" height="11" viewBox="0 0 11 11" fill="none" xmlns="http://www.w3.org/2000/svg">
<g id="Iconsax/Outline/eye">
<path id="Vector" d="M5.50094 7.48552C4.40552 7.48552 3.51636 6.59636 3.51636 5.50094C3.51636 4.40552 4.40552 3.51636 5.50094 3.51636C6.59636 3.51636 7.48552 4.40552 7.48552 5.50094C7.48552 6.59636 6.59636 7.48552 5.50094 7.48552ZM5.50094 4.20386C4.78594 4.20386 4.20386 4.78594 4.20386 5.50094C4.20386 6.21594 4.78594 6.79802 5.50094 6.79802C6.21594 6.79802 6.79802 6.21594 6.79802 5.50094C6.79802 4.78594 6.21594 4.20386 5.50094 4.20386Z" fill="#003577"/>
<path id="Vector_2" d="M5.49914 9.63418C3.77581 9.63418 2.14872 8.62585 1.03039 6.87501C0.544557 6.11876 0.544557 4.88584 1.03039 4.12501C2.15331 2.37418 3.78039 1.36584 5.49914 1.36584C7.21789 1.36584 8.84497 2.37418 9.96331 4.12501C10.4491 4.88126 10.4491 6.11418 9.96331 6.87501C8.84497 8.62585 7.21789 9.63418 5.49914 9.63418ZM5.49914 2.05334C4.01872 2.05334 2.60247 2.94251 1.61247 4.49626C1.26872 5.03251 1.26872 5.96751 1.61247 6.50376C2.60247 8.05751 4.01872 8.94668 5.49914 8.94668C6.97956 8.94668 8.39581 8.05751 9.38581 6.50376C9.72956 5.96751 9.72956 5.03251 9.38581 4.49626C8.39581 2.94251 6.97956 2.05334 5.49914 2.05334Z" fill="#003577"/>
</g>
</svg>
