<svg width="11" height="11" viewBox="0 0 11 11" fill="none" xmlns="http://www.w3.org/2000/svg">
<g id="Iconsax/Outline/eyeslash" clip-path="url(#clip0_4_1047)">
<path id="Vector" d="M4.34136 7.00427C4.25428 7.00427 4.16719 6.97219 4.09844 6.90344C3.9136 6.7197 3.76699 6.50115 3.66708 6.26043C3.56717 6.01971 3.51595 5.76157 3.51636 5.50094C3.51636 4.40552 4.40553 3.51636 5.50094 3.51636C6.02803 3.51636 6.52761 3.72261 6.90344 4.09844C6.96782 4.16289 7.00397 4.25026 7.00397 4.34136C7.00397 4.43245 6.96782 4.51982 6.90344 4.58427L4.58428 6.90344C4.51553 6.97219 4.42844 7.00427 4.34136 7.00427ZM5.50094 4.20386C5.27412 4.20436 5.05139 4.26426 4.8549 4.37758C4.65841 4.4909 4.49503 4.65369 4.381 4.84977C4.26697 5.04585 4.20627 5.26836 4.20494 5.49518C4.20362 5.722 4.26171 5.94521 4.37344 6.14261L6.14261 4.37344C5.95011 4.26344 5.73011 4.20386 5.50094 4.20386Z" fill="#003577"/>
<path id="Vector_2" d="M2.56659 8.48376C2.48868 8.48376 2.40618 8.45626 2.34201 8.40126C1.85159 7.98418 1.41159 7.47084 1.03576 6.87501C0.549928 6.11876 0.549928 4.88584 1.03576 4.12501C2.1541 2.37418 3.78118 1.36584 5.49993 1.36584C6.50826 1.36584 7.50284 1.71418 8.37368 2.36959C8.44661 2.4243 8.49483 2.50573 8.50772 2.59598C8.52062 2.68623 8.49713 2.77791 8.44243 2.85084C8.38773 2.92378 8.30629 2.972 8.21604 2.98489C8.12579 2.99778 8.03411 2.9743 7.96118 2.91959C7.20951 2.35126 6.35701 2.05334 5.49993 2.05334C4.01951 2.05334 2.60326 2.94251 1.61326 4.49626C1.26951 5.03251 1.26951 5.96751 1.61326 6.50376C1.95701 7.04001 2.35118 7.50293 2.78659 7.87876C2.92868 8.00251 2.94701 8.21793 2.82326 8.36459C2.75909 8.44251 2.66284 8.48376 2.56659 8.48376ZM5.49947 9.63418C4.88989 9.63418 4.29405 9.51043 3.72114 9.26751C3.63739 9.23211 3.57107 9.16497 3.53671 9.08079C3.50235 8.99661 3.50274 8.90224 3.5378 8.81834C3.61114 8.64418 3.8128 8.56168 3.98697 8.63501C4.4728 8.84126 4.98155 8.94668 5.49489 8.94668C6.9753 8.94668 8.39155 8.05751 9.38155 6.50376C9.7253 5.96751 9.7253 5.03251 9.38155 4.49626C9.23947 4.27168 9.08364 4.05626 8.91864 3.85459C8.86165 3.78318 8.83499 3.69224 8.84442 3.60136C8.85386 3.51048 8.89861 3.42695 8.96905 3.36876C9.00417 3.33997 9.04465 3.31842 9.08815 3.30536C9.13165 3.2923 9.17731 3.28799 9.22248 3.29267C9.26766 3.29736 9.31145 3.31095 9.35134 3.33267C9.39123 3.35438 9.42643 3.38378 9.45489 3.41918C9.63364 3.63918 9.8078 3.87751 9.96364 4.12501C10.4495 4.88126 10.4495 6.11418 9.96364 6.87501C8.8453 8.62584 7.21822 9.63418 5.49947 9.63418Z" fill="#003577"/>
<path id="Vector_3" d="M5.8168 7.45611C5.65638 7.45611 5.50972 7.34153 5.47763 7.17653C5.44097 6.98861 5.56472 6.80986 5.75263 6.77778C6.2568 6.68611 6.67847 6.26444 6.77013 5.76027C6.8068 5.57236 6.98555 5.45319 7.17347 5.48528C7.36138 5.52194 7.48513 5.70069 7.44847 5.88861C7.3018 6.68152 6.6693 7.30944 5.88097 7.45611C5.85805 7.45152 5.83972 7.45611 5.8168 7.45611ZM0.917218 10.4266C0.830135 10.4266 0.743051 10.3945 0.674301 10.3257C0.610483 10.261 0.574707 10.1737 0.574707 10.0828C0.574707 9.99191 0.610483 9.90465 0.674301 9.8399L4.09805 6.41615C4.23097 6.28323 4.45097 6.28323 4.58388 6.41615C4.7168 6.54907 4.7168 6.76907 4.58388 6.90198L1.16013 10.3257C1.09138 10.3945 1.0043 10.4266 0.917218 10.4266ZM6.65922 4.68457C6.57213 4.68457 6.48505 4.65248 6.4163 4.58373C6.35237 4.51905 6.31652 4.43176 6.31652 4.34082C6.31652 4.24987 6.35237 4.16259 6.4163 4.0979L9.84005 0.67415C9.97297 0.541234 10.193 0.541234 10.3259 0.67415C10.4588 0.807067 10.4588 1.02707 10.3259 1.15998L6.90213 4.58373C6.83338 4.65248 6.7463 4.68457 6.65922 4.68457Z" fill="#003577"/>
</g>
<defs>
<clipPath id="clip0_4_1047">
<rect width="11" height="11" fill="white"/>
</clipPath>
</defs>
</svg>
